<svg width="94" height="45" viewBox="0 0 94 45" fill="none" xmlns="http://www.w3.org/2000/svg">
<path d="M0 27.66C0 26 0.34 24.53 1.02 23.25C1.72 21.97 2.66 20.98 3.84 20.28C5.04 19.56 6.36 19.2 7.8 19.2C9.1 19.2 10.23 19.46 11.19 19.98C12.17 20.48 12.95 21.11 13.53 21.87V19.47H16.98V36H13.53V33.54C12.95 34.32 12.16 34.97 11.16 35.49C10.16 36.01 9.02 36.27 7.74 36.27C6.32 36.27 5.02 35.91 3.84 35.19C2.66 34.45 1.72 33.43 1.02 32.13C0.34 30.81 0 29.32 0 27.66ZM13.53 27.72C13.53 26.58 13.29 25.59 12.81 24.75C12.35 23.91 11.74 23.27 10.98 22.83C10.22 22.39 9.4 22.17 8.52 22.17C7.64 22.17 6.82 22.39 6.06 22.83C5.3 23.25 4.68 23.88 4.2 24.72C3.74 25.54 3.51 26.52 3.51 27.66C3.51 28.8 3.74 29.8 4.2 30.66C4.68 31.52 5.3 32.18 6.06 32.64C6.84 33.08 7.66 33.3 8.52 33.3C9.4 33.3 10.22 33.08 10.98 32.64C11.74 32.2 12.35 31.56 12.81 30.72C13.29 29.86 13.53 28.86 13.53 27.72Z" fill="#257B2F"/>
<path d="M26.632 19.2C27.912 19.2 29.042 19.46 30.022 19.98C31.022 20.48 31.802 21.11 32.362 21.87V19.47H35.812V36.27C35.812 37.79 35.492 39.14 34.852 40.32C34.212 41.52 33.282 42.46 32.062 43.14C30.862 43.82 29.422 44.16 27.742 44.16C25.502 44.16 23.642 43.63 22.162 42.57C20.682 41.53 19.842 40.11 19.642 38.31H23.032C23.292 39.17 23.842 39.86 24.682 40.38C25.542 40.92 26.562 41.19 27.742 41.19C29.122 41.19 30.232 40.77 31.072 39.93C31.932 39.09 32.362 37.87 32.362 36.27V33.51C31.782 34.29 30.992 34.95 29.992 35.49C29.012 36.01 27.892 36.27 26.632 36.27C25.192 36.27 23.872 35.91 22.672 35.19C21.492 34.45 20.552 33.43 19.852 32.13C19.172 30.81 18.832 29.32 18.832 27.66C18.832 26 19.172 24.53 19.852 23.25C20.552 21.97 21.492 20.98 22.672 20.28C23.872 19.56 25.192 19.2 26.632 19.2ZM32.362 27.72C32.362 26.58 32.122 25.59 31.642 24.75C31.182 23.91 30.572 23.27 29.812 22.83C29.052 22.39 28.232 22.17 27.352 22.17C26.472 22.17 25.652 22.39 24.892 22.83C24.132 23.25 23.512 23.88 23.032 24.72C22.572 25.54 22.342 26.52 22.342 27.66C22.342 28.8 22.572 29.8 23.032 30.66C23.512 31.52 24.132 32.18 24.892 32.64C25.672 33.08 26.492 33.3 27.352 33.3C28.232 33.3 29.052 33.08 29.812 32.64C30.572 32.2 31.182 31.56 31.642 30.72C32.122 29.86 32.362 28.86 32.362 27.72Z" fill="#257B2F"/>
<path d="M42.2241 21.87C42.7241 21.03 43.3841 20.38 44.2041 19.92C45.0441 19.44 46.0341 19.2 47.1741 19.2V22.74H46.3041C44.9641 22.74 43.9441 23.08 43.2441 23.76C42.5641 24.44 42.2241 25.62 42.2241 27.3V36H38.8041V19.47H42.2241V21.87Z" fill="#257B2F"/>
<path d="M50.5577 17.28C49.9377 17.28 49.4177 17.07 48.9977 16.65C48.5777 16.23 48.3677 15.71 48.3677 15.09C48.3677 14.47 48.5777 13.95 48.9977 13.53C49.4177 13.11 49.9377 12.9 50.5577 12.9C51.1577 12.9 51.6677 13.11 52.0877 13.53C52.5077 13.95 52.7177 14.47 52.7177 15.09C52.7177 15.71 52.5077 16.23 52.0877 16.65C51.6677 17.07 51.1577 17.28 50.5577 17.28ZM52.2377 19.47V36H48.8177V19.47H52.2377Z" fill="#257B2F"/>
<path d="M61.6179 32.94L66.2979 19.47H69.9279L63.6279 36H59.5479L53.2779 19.47H56.9379L61.6179 32.94Z" fill="#257B2F"/>
<path d="M74.433 19.47V36H71.013V19.47H74.433Z" fill="#257B2F"/>
<path d="M76.2832 27.66C76.2832 26 76.6232 24.53 77.3032 23.25C78.0032 21.97 78.9432 20.98 80.1232 20.28C81.3232 19.56 82.6432 19.2 84.0832 19.2C85.3832 19.2 86.5132 19.46 87.4732 19.98C88.4532 20.48 89.2332 21.11 89.8132 21.87V19.47H93.2632V36H89.8132V33.54C89.2332 34.32 88.4432 34.97 87.4432 35.49C86.4432 36.01 85.3032 36.27 84.0232 36.27C82.6032 36.27 81.3032 35.91 80.1232 35.19C78.9432 34.45 78.0032 33.43 77.3032 32.13C76.6232 30.81 76.2832 29.32 76.2832 27.66ZM89.8132 27.72C89.8132 26.58 89.5732 25.59 89.0932 24.75C88.6332 23.91 88.0232 23.27 87.2632 22.83C86.5032 22.39 85.6832 22.17 84.8032 22.17C83.9232 22.17 83.1032 22.39 82.3432 22.83C81.5832 23.25 80.9632 23.88 80.4832 24.72C80.0232 25.54 79.7932 26.52 79.7932 27.66C79.7932 28.8 80.0232 29.8 80.4832 30.66C80.9632 31.52 81.5832 32.18 82.3432 32.64C83.1232 33.08 83.9432 33.3 84.8032 33.3C85.6832 33.3 86.5032 33.08 87.2632 32.64C88.0232 32.2 88.6332 31.56 89.0932 30.72C89.5732 29.86 89.8132 28.86 89.8132 27.72Z" fill="#257B2F"/>
<path d="M82.64 4.35897C74.99 6.10256 71.8025 11.9872 71.165 17H72.865L73.851 14.559C74.259 14.7072 74.684 14.8205 74.99 14.8205C84.34 14.8205 86.89 0 86.89 0C86.04 1.74359 80.09 1.96154 75.84 2.83333C71.59 3.70513 69.89 7.41026 69.89 9.15385C69.89 10.8974 71.3775 12.4231 71.3775 12.4231C74.14 4.35897 82.64 4.35897 82.64 4.35897Z" fill="#257B2F"/>
</svg>
