<svg width="24" height="24" viewBox="0 0 24 24" fill="none" xmlns="http://www.w3.org/2000/svg">
<path d="M3.692 9.26997C3.55067 9.26997 3.432 9.22164 3.336 9.12497C3.24 9.0283 3.192 8.9093 3.192 8.76797C3.192 8.62664 3.24 8.50797 3.336 8.41197C3.432 8.31597 3.55067 8.2683 3.692 8.26897H6.808C7.12733 8.26897 7.41233 8.3623 7.663 8.54897C7.91367 8.73564 8.09033 8.97564 8.193 9.26897L3.692 9.26997ZM5.731 18.23C6.62833 18.23 7.391 17.9163 8.019 17.289C8.647 16.6616 8.961 15.8986 8.961 15C8.961 14.1013 8.647 13.3383 8.019 12.711C7.391 12.0836 6.62833 11.7696 5.731 11.769C4.83367 11.7683 4.07067 12.0823 3.442 12.711C2.81333 13.3396 2.49933 14.1026 2.5 15C2.50067 15.8973 2.81467 16.6603 3.442 17.289C4.06933 17.9176 4.83233 18.2316 5.731 18.231M20.909 17.639C21.303 17.245 21.5 16.7756 21.5 16.231C21.5 15.6863 21.303 15.2166 20.909 14.822C20.515 14.4273 20.0453 14.2303 19.5 14.231C18.9547 14.2316 18.485 14.4286 18.091 14.822C17.697 15.2153 17.5 15.685 17.5 16.231C17.5 16.777 17.697 17.2463 18.091 17.639C18.485 18.0316 18.9547 18.229 19.5 18.231C20.0453 18.233 20.515 18.0356 20.909 17.639ZM5.726 16.117C5.41533 16.117 5.15267 16.008 4.938 15.79C4.72333 15.572 4.616 15.3076 4.616 14.997C4.616 14.6863 4.72467 14.423 4.942 14.207C5.16 13.993 5.42433 13.886 5.735 13.886C6.04633 13.886 6.30933 13.9946 6.524 14.212C6.73867 14.43 6.846 14.6943 6.846 15.005C6.846 15.3163 6.73733 15.5796 6.52 15.795C6.302 16.0096 6.03733 16.117 5.726 16.117ZM19.962 13.257C20.1647 13.3016 20.337 13.35 20.479 13.402C20.621 13.454 20.782 13.5423 20.962 13.667V8.38497C20.962 7.9403 20.8037 7.55997 20.487 7.24397C20.1703 6.92797 19.7903 6.76964 19.347 6.76897H14.2L13.15 5.66897L14.55 4.26897L13.85 3.56897L10.3 7.11897L11.05 7.81897L12.45 6.41897L13.5 7.46897V8.99997C13.5 9.7613 13.229 10.4133 12.687 10.956C12.145 11.4986 11.493 11.7696 10.731 11.769H8.456C8.64667 11.937 8.801 12.094 8.919 12.24C9.037 12.3866 9.16767 12.5633 9.311 12.77H10.731C11.7797 12.77 12.67 12.4036 13.402 11.671C14.134 10.9383 14.5 10.048 14.5 8.99997V7.76997H19.346C19.526 7.76997 19.6737 7.8273 19.789 7.94197C19.9043 8.0573 19.962 8.20464 19.962 8.38397V13.257ZM16.582 15.501C16.644 15.2943 16.707 15.1193 16.771 14.976C16.835 14.8326 16.9343 14.6743 17.069 14.501H9.92C9.948 14.693 9.962 14.8596 9.962 15.001C9.962 15.1423 9.948 15.309 9.92 15.501H16.582ZM19.5 19.231C18.6613 19.231 17.9517 18.941 17.371 18.361C16.7903 17.7796 16.5 17.0696 16.5 16.231C16.5 15.3923 16.7903 14.683 17.371 14.103C17.9517 13.523 18.6613 13.2326 19.5 13.232C20.3387 13.2313 21.0483 13.5216 21.629 14.103C22.2097 14.6843 22.5 15.394 22.5 16.232C22.5 17.07 22.2097 17.7793 21.629 18.36C21.0483 18.9413 20.3387 19.231 19.5 19.231ZM5.73 19.232C4.56 19.232 3.56267 18.8193 2.738 17.994C1.91333 17.1686 1.50067 16.1706 1.5 15C1.49933 13.8293 1.913 12.8316 2.741 12.007C3.569 11.1816 4.56567 10.769 5.731 10.769C6.89633 10.769 7.893 11.1816 8.721 12.007C9.547 12.8316 9.96 13.8293 9.96 15C9.96 16.1706 9.54767 17.1683 8.723 17.993C7.89833 18.8176 6.90067 19.2313 5.73 19.232Z" fill="black"/>
</svg>
