<svg width="24" height="24" viewBox="0 0 20 21'" fill="none" xmlns="http://www.w3.org/2000/svg">
<path d="M9.7031 0.0585938C8.79685 0.199219 7.99607 0.601562 7.37498 1.23828C7.21092 1.40625 7.03513 1.59375 6.98826 1.65625C6.80467 1.89062 6.52732 2.39453 6.42576 2.67188C6.27342 3.08594 6.21873 3.12891 5.75388 3.17188C4.72263 3.26172 3.8867 3.70703 3.30076 4.47266C3.08592 4.75391 2.81248 5.28125 2.73826 5.57422C2.71092 5.67578 2.66404 5.74609 2.61717 5.76172C2.49607 5.80078 2.27732 6.08203 2.22654 6.26953C2.18748 6.41016 2.19138 6.51562 2.24217 6.87109C2.31638 7.37891 2.3242 8.01953 2.25779 8.47656C2.17576 9.05078 2.19138 9.29688 2.31638 9.48438C2.37498 9.57422 2.49217 9.69141 2.5742 9.74609L2.72263 9.84766L2.55467 10.2539C2.18357 11.1562 1.81248 12.3438 1.62107 13.2461C1.41013 14.2539 1.39842 14.3828 1.37107 16.1914C1.34763 17.7656 1.33592 17.9219 1.26951 18.0664C1.21482 18.1797 1.19529 18.3125 1.19529 18.5547C1.19138 18.832 1.21092 18.9219 1.29685 19.1094C1.44138 19.4219 1.71482 19.6992 2.02732 19.8555L2.28513 19.9805H9.99998H17.7148L17.957 19.8672C18.2578 19.7305 18.5547 19.4258 18.7031 19.1133C18.789 18.9219 18.8086 18.8359 18.8047 18.5547C18.8047 18.3086 18.7851 18.1836 18.7304 18.0664C18.6601 17.9219 18.6523 17.8008 18.6445 16.4258C18.6406 15.6094 18.6172 14.7656 18.5937 14.5508C18.4453 13.2188 18.0898 11.8086 17.539 10.3477C17.4297 10.0664 17.3437 9.82812 17.3437 9.82031C17.3437 9.8125 17.3711 9.80469 17.4023 9.80469C17.4375 9.80469 17.539 9.72656 17.6367 9.63281C17.8711 9.39844 17.9179 9.21875 17.8554 8.80859C17.7656 8.23047 17.7578 7.4375 17.832 6.91406C17.8867 6.51953 17.8906 6.40625 17.8515 6.26562C17.7969 6.07031 17.5898 5.8125 17.4336 5.74609C17.3476 5.71094 17.2969 5.63672 17.2109 5.42578C17.0547 5.03516 16.7695 4.62891 16.4336 4.3125C16.0859 3.98438 15.8164 3.82031 15.3515 3.65234C14.7422 3.42969 14.5469 3.24219 14.1797 2.5C13.8945 1.92969 13.6758 1.61328 13.3164 1.24609C12.3789 0.300781 11.0156 -0.148438 9.7031 0.0585938ZM10.8828 0.824219C11.5664 0.945312 12.1758 1.24609 12.6719 1.71484C13.0078 2.03516 13.207 2.30859 13.457 2.8125C13.9297 3.75781 14.2461 4.07422 15.0039 4.35547C15.414 4.50781 15.6211 4.625 15.8711 4.84766C16.0703 5.01953 16.4453 5.51953 16.4453 5.61328C16.4453 5.65625 16.0234 5.66406 14.0234 5.66406H11.5976L11.5039 5.75781C11.3125 5.94922 11.3359 6.20703 11.5625 6.35547L11.6914 6.44531H14.4023H17.1172L17.0937 6.55078C16.9609 7.20312 16.9609 8.11328 17.0937 8.93359L17.1211 9.10156H10.039H2.95701L2.98435 8.93359C3.11717 8.125 3.11717 7.28125 2.98435 6.57031L2.96092 6.44531H5.67967C8.59763 6.44531 8.56638 6.44922 8.67185 6.25391C8.74998 6.10156 8.71873 5.88281 8.60154 5.76953L8.49217 5.66406H6.02342C3.22263 5.66406 3.46873 5.69922 3.67576 5.3125C3.91013 4.87109 4.30857 4.48047 4.7656 4.24219C5.10935 4.05859 5.3906 3.98438 5.86717 3.94922C6.33201 3.91016 6.54685 3.82812 6.78513 3.59375C6.9531 3.42578 6.99998 3.34375 7.19529 2.87109C7.37888 2.42969 7.58201 2.14062 7.96873 1.75781C8.46482 1.26562 9.10545 0.9375 9.78123 0.824219C10.0703 0.777344 10.6133 0.773438 10.8828 0.824219ZM7.2656 9.98828C6.61326 10.4922 6.0742 11.1953 5.78123 11.9258C5.56638 12.4688 5.49217 12.8711 5.49217 13.5547C5.49607 14.5156 5.70701 15.2383 6.21873 16.0156C6.44529 16.3633 7.0156 16.9453 7.36326 17.1836C9.43748 18.6172 12.2265 18.0938 13.6211 16.0078C14.6211 14.5078 14.6211 12.6055 13.6211 11.1016C13.3828 10.75 12.9179 10.25 12.5781 9.98828L12.4414 9.88281H14.4804H16.5156L16.7109 10.3789C17.082 11.3242 17.3789 12.2969 17.5742 13.1914C17.8047 14.2617 17.8203 14.4258 17.8515 16.2695C17.875 17.9141 17.8828 18 17.9687 18.2695C18.1015 18.6875 18.0117 18.9805 17.6992 19.1406C17.5429 19.2188 17.5156 19.2188 9.99607 19.2188H2.4492L2.28123 19.1211C2.10545 19.0195 1.9531 18.7695 1.9531 18.5859C1.9531 18.5312 1.99217 18.375 2.03904 18.2383C2.11717 18.0039 2.12498 17.8867 2.14842 16.2695C2.17576 14.6641 2.18357 14.5156 2.27732 13.9844C2.46873 12.9062 2.84373 11.6328 3.32029 10.4492C3.42967 10.1719 3.53123 9.92969 3.53904 9.91406C3.55076 9.89453 4.42576 9.88281 5.48045 9.88281H7.40232L7.2656 9.98828ZM10.8398 9.99609C11.1836 10.0859 11.6953 10.3164 11.9844 10.5117C12.25 10.6953 12.7148 11.1523 12.914 11.4336C13.1406 11.75 13.3711 12.2461 13.4804 12.6562C13.5937 13.0859 13.6054 13.9375 13.5039 14.3438C13.1953 15.5859 12.332 16.5742 11.2031 16.9883C10.9297 17.0898 10.5429 17.1875 10.414 17.1875H10.3125V15.8789V14.5703L10.4219 14.5508C10.4804 14.5391 10.6328 14.5 10.7617 14.4688C11.6601 14.2383 12.3086 13.3789 12.3711 12.3359C12.3984 11.9297 12.3515 11.8242 12.1133 11.7539C11.9883 11.7188 11.8867 11.7227 11.5859 11.7734C11.1562 11.8438 10.832 11.9648 10.539 12.1641C10.3047 12.3203 10.3125 12.3281 10.2383 11.9336C10.1797 11.6133 9.9492 11.1641 9.73045 10.9336C9.49998 10.6953 9.33592 10.6758 9.13279 10.8555C8.9492 11.0195 8.9531 11.2148 9.15232 11.4453C9.23435 11.543 9.34763 11.7148 9.40623 11.8359L9.5117 12.0508L9.52342 13.0977L9.53513 14.1445L9.34373 14.0078C8.9531 13.7266 8.41013 13.5547 7.90232 13.5547C7.71482 13.5547 7.67576 13.5703 7.57029 13.6758L7.4492 13.793L7.47263 14.1914C7.49607 14.6406 7.61717 15.0352 7.83201 15.3711C8.10935 15.8086 8.66404 16.1797 9.24607 16.3203L9.53123 16.3867V16.7852V17.1875H9.42185C9.35935 17.1875 9.17185 17.1523 9.00388 17.1055C7.72654 16.7734 6.6992 15.7383 6.36326 14.4531C6.24607 14.0078 6.23435 13.2109 6.33982 12.7578C6.49607 12.0938 6.80467 11.5234 7.2617 11.043C7.84373 10.4336 8.5156 10.0703 9.33592 9.92578C9.67576 9.86328 10.4804 9.90234 10.8398 9.99609ZM11.5078 12.8008C11.3398 13.293 10.9531 13.6523 10.4531 13.7656C10.3437 13.793 10.3398 13.7891 10.3672 13.668C10.4297 13.3477 10.625 13.0547 10.9179 12.8281C11.0781 12.707 11.5351 12.5312 11.5547 12.582C11.5625 12.6016 11.5429 12.6992 11.5078 12.8008ZM8.7617 14.5391C8.8867 14.6055 9.04295 14.7227 9.10935 14.8008C9.22263 14.9297 9.41404 15.2969 9.47263 15.5039C9.49998 15.5898 9.49217 15.5938 9.36717 15.5664C8.87498 15.457 8.42576 15.0273 8.28904 14.5156L8.24607 14.3672L8.3906 14.3945C8.46873 14.4102 8.6367 14.4766 8.7617 14.5391Z" fill="black"/>
<path d="M9.93355 5.68359C9.67183 5.79688 9.60933 6.08203 9.80073 6.29688C9.89448 6.40234 9.94136 6.42578 10.0781 6.42578C10.4023 6.42578 10.5898 6.03906 10.3828 5.80078C10.2617 5.66797 10.0859 5.62109 9.93355 5.68359Z" fill="black"/>
</svg>

