<svg width="19" height="19" viewBox="0 0 19 19" fill="none" xmlns="http://www.w3.org/2000/svg">
<path d="M10.5012 8.50214L15.5012 3.50214" stroke="black"/>
<path d="M16.5012 4.50216L14.5012 2.50216L17.0012 1.00216L18.0012 2.00216L16.5012 4.50216ZM1.52623 6.47716C1.04612 5.99748 0.715825 5.38856 0.575563 4.72453C0.435302 4.06051 0.491121 3.37003 0.736225 2.73716L2.15823 4.15916H4.15823V2.15916L2.73623 0.73716C3.36914 0.491501 4.05984 0.435221 4.72417 0.575176C5.38851 0.715132 5.9978 1.04528 6.47781 1.5254C6.95782 2.00552 7.28784 2.61488 7.42765 3.27925C7.56746 3.94361 7.51102 4.6343 7.26523 5.26716L13.7352 11.7382C14.3681 11.4924 15.0588 11.4359 15.7231 11.5757C16.3875 11.7155 16.9969 12.0456 17.477 12.5256C17.9571 13.0056 18.2873 13.6149 18.4272 14.2792C18.5672 14.9435 18.5109 15.6342 18.2652 16.2672L16.8442 14.8452H14.8442V16.8452L16.2662 18.2672C15.6335 18.5128 14.9429 18.5692 14.2787 18.4294C13.6145 18.2896 13.0053 17.9597 12.5252 17.4798C12.0451 17 11.715 16.3909 11.5749 15.7267C11.4348 15.0626 11.4908 14.372 11.7362 13.7392L5.26423 7.26716C4.63162 7.51184 3.94154 7.56744 3.27792 7.42719C2.61431 7.28693 2.00574 6.95688 1.52623 6.47716Z" stroke="black" stroke-linejoin="round"/>
<path d="M9.70417 12.0021L4.10017 17.6061C3.97477 17.7318 3.82584 17.8314 3.66188 17.8994C3.49793 17.9674 3.32217 18.0024 3.14467 18.0024C2.96717 18.0024 2.79141 17.9674 2.62745 17.8994C2.4635 17.8314 2.31456 17.7318 2.18917 17.6061L1.39717 16.8141C1.27154 16.6887 1.17187 16.5398 1.10386 16.3758C1.03586 16.2119 1.00085 16.0361 1.00085 15.8586C1.00085 15.6811 1.03586 15.5054 1.10386 15.3414C1.17187 15.1775 1.27154 15.0285 1.39717 14.9031L7.00117 9.29913" stroke="black" stroke-linejoin="round"/>
</svg>
