<svg width="20" height="21" viewBox="0 0 20 21" fill="none" xmlns="http://www.w3.org/2000/svg">
<path d="M8.91101 0.0290624C8.8362 0.0704458 8.71205 0.162763 8.65316 0.220063C8.64043 0.232796 8.58313 0.283729 8.52742 0.331479C8.23455 0.584555 7.90826 0.90448 7.67747 1.16551C7.61539 1.23396 7.55491 1.3024 7.54058 1.31672C7.5183 1.33741 7.1936 1.74647 7.08377 1.89132C7.02807 1.96294 6.88163 2.18418 6.82592 2.27809C6.79568 2.32902 6.75589 2.39428 6.73838 2.42452C6.72087 2.45317 6.68267 2.51843 6.65402 2.57096C6.62537 2.62189 6.59513 2.67442 6.58717 2.68715C6.54897 2.75082 6.36434 3.14078 6.36434 3.15988C6.36434 3.16783 6.34524 3.20763 6.32455 3.25219C6.30226 3.29517 6.28476 3.34133 6.28476 3.35247C6.28476 3.3652 6.27521 3.39385 6.26247 3.41613C6.24974 3.44001 6.22109 3.52278 6.19721 3.60236C6.17493 3.68035 6.14628 3.77744 6.13355 3.81723C6.1224 3.85703 6.10808 3.91751 6.10171 3.95253C6.09694 3.98754 6.08261 4.05121 6.06988 4.09578C6.01735 4.28041 5.97279 4.89161 5.99666 5.09375C6.00621 5.18448 6.02213 5.32932 6.03009 5.41686C6.03964 5.5044 6.05396 5.6015 6.0651 5.63174C6.07465 5.66198 6.09216 5.7336 6.1033 5.7909C6.13195 5.93734 6.17493 6.09491 6.19721 6.14107C6.20836 6.16336 6.22268 6.20633 6.22905 6.23657C6.23541 6.26681 6.24974 6.30661 6.25929 6.32411C6.27043 6.34162 6.28476 6.37664 6.29112 6.4037C6.29749 6.42916 6.31659 6.48328 6.3341 6.52307C6.35161 6.56286 6.37548 6.61539 6.38662 6.64245C6.41846 6.71885 6.55534 7.00535 6.57126 7.03241C6.58081 7.04514 6.59831 7.07697 6.61105 7.10403C6.62378 7.1295 6.65243 7.18043 6.67471 7.21545C6.69541 7.25047 6.72246 7.29662 6.73361 7.31891C6.74475 7.34119 6.79568 7.42077 6.84661 7.49558C6.89596 7.57198 6.93734 7.64042 6.93734 7.64997C6.93734 7.65952 6.94689 7.67385 6.95803 7.68022C6.96917 7.68658 7.01374 7.74707 7.05672 7.81232C7.10128 7.87758 7.14744 7.94284 7.16017 7.95717C7.17291 7.97149 7.19678 8.00014 7.2127 8.02083C7.27477 8.1036 7.39256 8.25481 7.41484 8.27868C7.44508 8.31052 7.461 8.32962 7.56287 8.45377C7.69179 8.61134 8.12473 9.05701 8.29503 9.20822C8.40963 9.31009 8.58472 9.46129 8.6452 9.50745L8.70728 9.5552L8.70568 12.1337C8.70568 13.5519 8.71046 14.8475 8.71842 15.0146C8.73274 15.3982 8.71523 15.4555 8.61814 15.3377C8.47171 15.1579 8.23933 14.9175 7.35436 14.0342L6.36434 13.0425L6.37389 12.7226C6.38503 12.3788 6.35638 11.61 6.33091 11.5416C6.32296 11.5177 6.30863 11.4238 6.29908 11.3315C6.29112 11.2392 6.27521 11.1373 6.26566 11.1071C6.25611 11.0768 6.2386 10.9973 6.22746 10.932C6.2004 10.776 6.15105 10.5643 6.13036 10.5261C6.12081 10.5086 6.10808 10.4625 6.10171 10.4227C6.09535 10.3829 6.08102 10.3367 6.06988 10.3192C6.05874 10.3017 6.04441 10.2571 6.03964 10.2205C6.03327 10.1839 6.01735 10.1425 6.00621 10.125C5.99348 10.1091 5.98234 10.082 5.98234 10.0645C5.98234 10.047 5.9696 10.0072 5.9521 9.97699C5.93618 9.94675 5.91867 9.899 5.9123 9.87035C5.90594 9.84329 5.89161 9.81146 5.87888 9.80191C5.86774 9.79236 5.85341 9.76053 5.84864 9.73188C5.84227 9.70164 5.82795 9.6698 5.8168 9.66025C5.80407 9.64911 5.78975 9.62524 5.78497 9.60614C5.7802 9.58544 5.72767 9.48517 5.66878 9.38171C5.60989 9.27825 5.551 9.17479 5.53826 9.15251C5.52553 9.12863 5.50643 9.10158 5.49688 9.09362C5.48733 9.08407 5.45231 9.03791 5.42048 8.99016C5.30588 8.81508 5.10533 8.58747 4.91592 8.41557C4.75675 8.26913 4.6517 8.18478 4.53392 8.10678C4.49572 8.07972 4.45115 8.0463 4.43524 8.03038C4.41932 8.01606 4.39704 8.00332 4.3843 8.00332C4.37316 8.00332 4.35247 7.99218 4.34133 7.97786C4.33019 7.96353 4.30631 7.94602 4.28721 7.93807C4.2697 7.93011 4.22673 7.90623 4.19171 7.88395C4.15669 7.86326 4.11053 7.83779 4.08825 7.82824C4.04368 7.80755 3.90998 7.7407 3.8495 7.70727C3.82722 7.69454 3.79857 7.68499 3.78424 7.68499C3.76992 7.68499 3.74923 7.67544 3.73968 7.66271C3.72853 7.64997 3.69988 7.63406 3.67442 7.62928C3.65054 7.62451 3.60279 7.60541 3.56937 7.5879C3.53594 7.57198 3.49297 7.55766 3.47228 7.55766C3.45318 7.55766 3.43248 7.55129 3.42771 7.54174C3.42293 7.53378 3.38792 7.51946 3.35131 7.50991C3.3147 7.50036 3.26377 7.48285 3.23671 7.47012C3.21124 7.45897 3.15712 7.44147 3.11733 7.43192C2.96453 7.3969 2.83561 7.36347 2.76717 7.34278C2.72737 7.33005 2.64461 7.31254 2.58094 7.30458C2.51887 7.29503 2.45042 7.28071 2.42973 7.27275C2.40904 7.26479 2.33901 7.25365 2.27375 7.24728C2.20849 7.24251 2.10981 7.22659 2.05569 7.21386C2.00157 7.20272 1.77556 7.18362 1.55431 7.17407C0.842838 7.14064 0.293712 7.15497 0.217311 7.20908C0.193436 7.225 0.16797 7.23932 0.160011 7.23932C0.126586 7.23932 0.0517779 7.36347 0.0326778 7.4542C0.0024361 7.58631 -0.0118889 8.51425 0.0119861 8.71958C0.0231278 8.80234 0.0374528 8.96788 0.0470028 9.08566C0.0565529 9.20344 0.0724696 9.33237 0.0852029 9.37216C0.0979363 9.41195 0.112261 9.4979 0.118628 9.56316C0.123403 9.62842 0.137728 9.70641 0.14887 9.73824C0.160011 9.76849 0.174336 9.83374 0.180703 9.88149C0.18707 9.92924 0.201395 9.98654 0.212536 10.0088C0.223678 10.0311 0.238003 10.0836 0.24437 10.1282C0.250737 10.1712 0.265062 10.2253 0.276203 10.2476C0.287345 10.2699 0.30167 10.316 0.306445 10.351C0.312812 10.3861 0.327137 10.429 0.338278 10.4465C0.351012 10.464 0.365337 10.5086 0.371703 10.5468C0.37807 10.5834 0.389212 10.6168 0.395578 10.6216C0.403537 10.6264 0.421045 10.6694 0.433779 10.7171C0.448104 10.7649 0.467204 10.8078 0.475162 10.8126C0.484712 10.8174 0.491079 10.8333 0.491079 10.8476C0.491079 10.8683 0.659796 11.2185 0.745746 11.3729C0.954254 11.7501 1.43812 12.3024 1.73417 12.4982C1.77237 12.5253 1.81216 12.5539 1.82012 12.5635C1.83922 12.5841 2.10344 12.7592 2.16711 12.7942C2.28171 12.8563 2.63824 13.033 2.65097 13.033C2.65734 13.033 2.70032 13.0521 2.74329 13.0728C2.78786 13.0951 2.83242 13.1126 2.84357 13.1126C2.8563 13.1126 2.88495 13.1221 2.90723 13.1349C2.95657 13.1619 3.07436 13.2017 3.19055 13.2304C3.23512 13.2431 3.28446 13.259 3.30197 13.2686C3.31788 13.2765 3.36882 13.2893 3.41179 13.2956C3.45636 13.302 3.50888 13.3163 3.53117 13.3275C3.55345 13.3386 3.61234 13.3529 3.66487 13.3593C3.7158 13.3657 3.78424 13.38 3.81767 13.3911C3.8495 13.4023 3.9259 13.4166 3.98638 13.423C4.04687 13.4277 4.13282 13.4437 4.17579 13.4548C4.22036 13.4659 4.33019 13.4803 4.4225 13.4866C4.51482 13.4914 4.67558 13.5073 4.78063 13.5201C5.00505 13.5471 5.68947 13.5503 5.7802 13.5248C5.81362 13.5169 5.85341 13.5137 5.87092 13.5185C5.88843 13.5232 6.50918 14.136 7.2509 14.8777C7.99421 15.6195 8.62451 16.245 8.65475 16.2689L8.70887 16.3134L8.70568 18.0229C8.70409 18.962 8.70728 19.7562 8.71205 19.7865C8.73115 19.8899 8.83938 19.9775 9.01129 20.0316C9.12111 20.065 9.32484 19.9233 9.36623 19.7849C9.39169 19.6957 9.39488 16.8657 9.37259 15.1977C9.36464 14.6645 9.36623 14.6119 9.39329 14.5562C9.40761 14.5244 9.42671 14.4973 9.43308 14.4973C9.44422 14.4973 10.0077 13.9371 10.1302 13.8034C10.291 13.6315 10.3387 13.5758 10.3642 13.5376C10.3849 13.5057 10.4056 13.4946 10.4422 13.4946C10.4899 13.4946 10.4899 13.4962 10.4804 13.5535C10.4517 13.7047 10.4406 13.8654 10.4311 14.2427C10.4263 14.4655 10.4104 14.8189 10.3976 15.0274C10.369 15.5224 10.3674 16.1065 10.3976 16.2816C10.4104 16.3548 10.4247 16.4646 10.4311 16.5251C10.4374 16.5856 10.4517 16.6604 10.4629 16.6922C10.4724 16.7241 10.4868 16.7846 10.4947 16.8291C10.5011 16.8721 10.5138 16.923 10.5218 16.939C10.5313 16.9565 10.5472 17.0058 10.56 17.0504C10.5886 17.165 10.6443 17.3194 10.6618 17.3369C10.6714 17.3464 10.6778 17.3639 10.6778 17.3783C10.6778 17.4117 10.8799 17.8128 10.9452 17.9099C10.9738 17.9513 10.9961 17.991 10.9961 17.9974C10.9961 18.0054 11.0279 18.0531 11.0677 18.1041C11.1059 18.1566 11.1569 18.2234 11.1791 18.2537C11.4306 18.5895 11.9161 19.0161 12.2774 19.215C12.4445 19.3074 12.5384 19.3631 12.5591 19.379C12.5703 19.3885 12.5989 19.406 12.6196 19.4156C12.6419 19.4251 12.6864 19.449 12.7183 19.4681C12.7501 19.4872 12.8488 19.5461 12.9379 19.5986C13.0271 19.6512 13.1257 19.7101 13.1576 19.7292C13.1894 19.7483 13.2388 19.7753 13.2642 19.788C13.2913 19.8024 13.3406 19.831 13.3756 19.8517C13.4107 19.874 13.4616 19.9026 13.4871 19.9154C13.5141 19.9297 13.5635 19.9584 13.5985 19.9806C13.6335 20.0013 13.6844 20.0316 13.7099 20.0443C13.737 20.0586 13.7831 20.0857 13.8165 20.1048C13.8484 20.1239 13.92 20.1669 13.9757 20.2003C14.0298 20.2321 14.0871 20.2671 14.0999 20.2751C14.1126 20.2831 14.1906 20.3276 14.2718 20.3738C14.3545 20.4199 14.4325 20.4661 14.4468 20.4741C14.4962 20.5043 14.5694 20.5505 14.6315 20.5918C14.7142 20.646 14.9243 20.6523 14.9991 20.6014C15.0262 20.5839 15.066 20.56 15.0899 20.5457C15.1281 20.525 15.2252 20.4661 15.4034 20.3595C15.4353 20.3404 15.483 20.3133 15.5085 20.3006C15.5355 20.2862 15.5849 20.2576 15.6199 20.2369C15.6549 20.2146 15.7058 20.186 15.7313 20.1716C15.7584 20.1589 15.8045 20.1303 15.8364 20.1112C15.9828 20.0236 16.0703 19.9727 16.0799 19.9727C16.0847 19.9727 16.1245 19.9488 16.1658 19.9202C16.2072 19.8915 16.2582 19.8597 16.2804 19.8485C16.3027 19.8374 16.3489 19.8119 16.3839 19.7896C16.4189 19.7689 16.4698 19.7403 16.4953 19.7276C16.5224 19.7132 16.5717 19.6846 16.6067 19.6623C16.6417 19.6416 16.6927 19.6114 16.7181 19.5986C16.7452 19.5843 16.793 19.5573 16.8248 19.5382C16.8566 19.5191 16.9553 19.4602 17.0444 19.4076C17.1352 19.3551 17.2338 19.2962 17.2657 19.2771C17.2975 19.258 17.3453 19.231 17.3707 19.2182C17.3978 19.2039 17.4328 19.1848 17.4503 19.1737C17.5729 19.0973 17.6111 19.0718 17.619 19.0607C17.6254 19.0527 17.6429 19.0384 17.6604 19.0288C17.8657 18.9094 18.2223 18.572 18.4769 18.26C18.5327 18.1884 18.765 17.8287 18.808 17.7443C18.8367 17.687 18.8669 17.6297 18.8749 17.617C18.8828 17.6043 18.9035 17.5597 18.921 17.5183C18.9401 17.4753 18.9688 17.4117 18.9847 17.3751C19.0022 17.3369 19.0245 17.2764 19.034 17.2398C19.0436 17.2032 19.0579 17.1682 19.0659 17.1634C19.0754 17.1586 19.0818 17.1379 19.0818 17.1188C19.0834 17.0997 19.0945 17.0551 19.1072 17.0201C19.1216 16.9851 19.1423 16.9135 19.1534 16.861C19.1645 16.8084 19.1852 16.7225 19.1996 16.67C19.2139 16.619 19.225 16.5522 19.225 16.5251C19.225 16.4965 19.2362 16.4248 19.2505 16.3644C19.2807 16.2402 19.2839 15.3393 19.2569 14.943C19.2489 14.8252 19.2346 14.3907 19.2266 13.98C19.2171 13.5678 19.2027 13.1285 19.1932 13.0012C19.1836 12.8738 19.1661 12.3295 19.1534 11.7915C19.1391 11.2026 19.1232 10.7776 19.112 10.7251C19.0802 10.5691 18.9194 10.4609 18.6759 10.429C18.6313 10.4227 18.582 10.4115 18.5645 10.402C18.547 10.3924 18.4865 10.3765 18.4292 10.3654C18.3719 10.3558 18.2828 10.3351 18.2302 10.3208C18.1793 10.3065 18.1156 10.2953 18.0902 10.2953C18.0663 10.2953 18.0265 10.2858 18.0026 10.273C17.9787 10.2619 17.9055 10.246 17.8403 10.2396C17.775 10.2333 17.7066 10.2205 17.6891 10.211C17.6716 10.2014 17.5792 10.1855 17.4821 10.1744C17.3866 10.1632 17.272 10.1457 17.2275 10.1378C17.1845 10.1298 17.1129 10.1218 17.0715 10.1218C16.984 10.1202 16.9585 10.0884 17.0078 10.0438C17.0779 9.98177 17.3628 9.58385 17.3628 9.54884C17.3628 9.54088 17.3755 9.51859 17.393 9.4979C17.4089 9.47721 17.428 9.44219 17.4344 9.41991C17.4408 9.39763 17.4551 9.36898 17.4662 9.35624C17.4774 9.34351 17.4917 9.31486 17.4981 9.29258C17.5044 9.27029 17.5188 9.24164 17.5299 9.22891C17.541 9.21618 17.5554 9.18753 17.5617 9.16524C17.5665 9.14296 17.5872 9.09362 17.6047 9.05383C17.6668 8.92013 17.6795 8.8867 17.697 8.81985C17.7066 8.78324 17.7209 8.74823 17.7273 8.74345C17.7352 8.73868 17.7464 8.70525 17.7527 8.66705C17.7591 8.63044 17.7734 8.58269 17.7846 8.56041C17.7957 8.53813 17.81 8.48878 17.8164 8.44899C17.8228 8.4092 17.8371 8.35986 17.8482 8.33758C17.8594 8.31529 17.8737 8.26118 17.8801 8.2182C17.888 8.17363 17.9023 8.11315 17.9135 8.08132C17.9246 8.04948 17.9374 7.98104 17.9437 7.93011C17.9501 7.87758 17.9644 7.80437 17.9756 7.76457C17.9883 7.72478 18.001 7.63247 18.0074 7.55766C18.0122 7.48285 18.0297 7.36825 18.044 7.30299C18.0663 7.19953 18.0711 7.07697 18.0711 6.41961V5.65561L18.0329 5.59354C17.9867 5.52191 17.9294 5.45665 17.9119 5.45665C17.9039 5.45665 17.8848 5.44392 17.8673 5.4296C17.8053 5.3723 16.3568 5.37389 16.099 5.43278C16.0465 5.44392 15.9414 5.45984 15.8666 5.46461C15.7918 5.47098 15.6995 5.4869 15.6597 5.49804C15.6199 5.51077 15.5706 5.52032 15.5483 5.52032C15.526 5.52032 15.4687 5.53146 15.4209 5.5442C15.3732 5.55693 15.2904 5.57603 15.2379 5.58558C15.1854 5.59672 15.1249 5.61264 15.1026 5.62378C15.0803 5.63492 15.0278 5.64925 14.9848 5.65561C14.9418 5.66198 14.8909 5.6763 14.8734 5.68745C14.8543 5.69859 14.8097 5.71291 14.7731 5.71928C14.7349 5.72565 14.7015 5.73679 14.6967 5.74315C14.692 5.75111 14.649 5.76862 14.6012 5.78135C14.5535 5.79568 14.5105 5.81478 14.5057 5.82274C14.501 5.83229 14.485 5.83865 14.4723 5.83865C14.4596 5.83865 14.407 5.85775 14.3577 5.88004C14.3084 5.90232 14.2351 5.93575 14.1954 5.95485C14.1556 5.97236 14.1126 5.99623 14.0999 6.00578C14.0871 6.01692 14.0585 6.03125 14.0362 6.03761C14.0044 6.04716 13.877 6.1172 13.721 6.2127C13.6956 6.22861 13.6112 6.28591 13.5269 6.34321C13.1576 6.59947 12.6196 7.19317 12.47 7.50991C12.4557 7.54015 12.427 7.59427 12.4063 7.62928C12.3299 7.75662 12.1628 8.10678 12.1485 8.17045C12.1421 8.19592 12.1278 8.23253 12.1166 8.25003C12.1071 8.26754 12.0928 8.30733 12.0864 8.33758C12.08 8.36782 12.0657 8.40761 12.0546 8.42671C12.0418 8.44581 12.0275 8.48878 12.0211 8.52221C12.0164 8.55563 12.0036 8.59861 11.9941 8.61612C11.9845 8.63363 11.9686 8.68774 11.9575 8.73549C11.9193 8.89307 11.8874 9.02836 11.8699 9.09362C11.8604 9.12863 11.8429 9.22573 11.8317 9.30849C11.8206 9.39126 11.8047 9.47721 11.7951 9.49949C11.7872 9.52178 11.776 9.59977 11.7696 9.67458C11.7203 10.3224 11.7314 10.2874 11.55 10.3033C11.4768 10.3097 11.4004 10.324 11.3781 10.3351C11.3558 10.3463 11.2969 10.359 11.246 10.3654C11.1951 10.3701 11.133 10.3845 11.1107 10.3972C11.0868 10.4083 11.0295 10.4227 10.9818 10.429C10.934 10.4354 10.8704 10.4513 10.8401 10.464C10.8099 10.4768 10.7733 10.4863 10.7589 10.4863C10.7207 10.4863 10.6332 10.5548 10.587 10.62C10.5409 10.6837 10.5106 11.1755 10.4979 12.0382L10.4915 12.4998L10.0793 12.9152C9.85169 13.1428 9.62726 13.3752 9.57951 13.4309C9.53176 13.485 9.48242 13.5392 9.47128 13.5487C9.46014 13.5583 9.43785 13.5789 9.42034 13.5965C9.38055 13.6362 9.34076 13.6187 9.34076 13.563C9.34076 13.5392 9.34872 13.4293 9.35827 13.3195C9.36782 13.2017 9.37419 12.3963 9.37419 11.3426V9.56475L9.44104 9.51223C9.96788 9.10635 10.751 8.24367 11.1791 7.59745C11.3033 7.41122 11.3335 7.36347 11.3861 7.2632C11.4004 7.23614 11.4274 7.1868 11.4481 7.15178C11.4943 7.07379 11.6328 6.79843 11.6789 6.69338C11.698 6.652 11.7267 6.58833 11.7442 6.55013C11.7617 6.51193 11.776 6.47373 11.776 6.46577C11.776 6.45781 11.7903 6.4228 11.8078 6.38778C11.8254 6.35276 11.8397 6.31138 11.8397 6.29546C11.8397 6.27955 11.8476 6.2509 11.8588 6.2318C11.8811 6.19201 11.9288 6.02966 11.9543 5.91028C11.9622 5.86571 11.9797 5.80841 11.9909 5.78135C12.002 5.7543 12.0164 5.68267 12.0227 5.62219C12.0291 5.5617 12.045 5.46939 12.0593 5.41686C12.0959 5.27361 12.0975 4.49369 12.0593 4.32657C12.045 4.26131 12.0275 4.16422 12.0227 4.11169C12.0164 4.05917 12.002 3.99869 11.9909 3.9764C11.9797 3.95412 11.967 3.89841 11.9606 3.85066C11.9543 3.8045 11.94 3.75038 11.9288 3.73128C11.9161 3.71378 11.9018 3.66762 11.897 3.62942C11.8906 3.59122 11.8763 3.54506 11.8651 3.52596C11.8524 3.50686 11.8381 3.4607 11.8317 3.42409C11.8254 3.38748 11.811 3.34928 11.7983 3.33814C11.7856 3.32859 11.776 3.3079 11.776 3.29358C11.776 3.27925 11.7617 3.23946 11.7458 3.20603C11.7283 3.17261 11.7092 3.12486 11.7044 3.10098C11.6996 3.07552 11.6837 3.04687 11.671 3.03573C11.6582 3.02618 11.6487 3.00708 11.6487 2.99593C11.6487 2.97524 11.5022 2.68237 11.4752 2.64736C11.4672 2.6394 11.4561 2.61393 11.4497 2.59165C11.4434 2.57096 11.4258 2.53435 11.4099 2.51207C11.3956 2.48978 11.359 2.43248 11.3272 2.38473C11.2969 2.33698 11.238 2.24626 11.1982 2.18259C11.1569 2.11892 11.1234 2.06003 11.1234 2.05207C11.1234 2.04252 11.1139 2.02979 11.1027 2.02342C11.0932 2.01706 11.0614 1.97886 11.0359 1.93907C11.0104 1.89927 10.9483 1.81651 10.9006 1.75443C10.8528 1.69236 10.7987 1.62232 10.7812 1.59845C10.7637 1.57298 10.7398 1.54433 10.7287 1.5316C10.7176 1.52046 10.6698 1.46316 10.6236 1.40586C10.4072 1.14323 9.91695 0.638672 9.68615 0.441305C9.48401 0.267813 9.31848 0.124563 9.27709 0.0879541C9.18 0.000412308 9.01288 -0.0266461 8.91101 0.0290624ZM9.1227 0.82808C9.6193 1.30717 9.87715 1.57298 10.0634 1.79582C10.1334 1.87858 10.1971 1.95339 10.2066 1.96294C10.2162 1.9709 10.2448 2.01069 10.2719 2.05048C10.3196 2.1237 10.3371 2.14598 10.3865 2.20169C10.4024 2.2192 10.4406 2.27332 10.4724 2.32107C10.5059 2.36882 10.5536 2.43567 10.5807 2.47068C10.6077 2.50411 10.63 2.53912 10.63 2.54549C10.63 2.55345 10.6587 2.6012 10.6937 2.65054C10.7287 2.70147 10.7573 2.74763 10.7573 2.75559C10.7573 2.76196 10.7812 2.80175 10.8099 2.84313C10.8847 2.95137 11.1393 3.47343 11.1393 3.518C11.1393 3.53073 11.1489 3.55302 11.1616 3.57053C11.1728 3.58803 11.1887 3.62783 11.1951 3.65807C11.2014 3.68831 11.2157 3.7281 11.2269 3.74561C11.238 3.76312 11.2524 3.80928 11.2587 3.84907C11.2651 3.88886 11.281 3.93502 11.2921 3.95253C11.3049 3.97163 11.3192 4.02256 11.324 4.06554C11.3288 4.10851 11.3431 4.17536 11.3542 4.21515C11.3861 4.3202 11.4306 4.83431 11.4211 4.96801C11.4004 5.24178 11.3749 5.45506 11.3542 5.52828C11.3431 5.57125 11.3288 5.6397 11.3224 5.67949C11.316 5.71928 11.3033 5.76544 11.2953 5.78135C11.2858 5.79886 11.2699 5.8482 11.2571 5.89277C11.2285 6.00896 11.1887 6.12675 11.1616 6.17609C11.1489 6.19837 11.1393 6.22702 11.1393 6.23816C11.1393 6.25886 11.0693 6.41961 11.0423 6.45941C11.0343 6.47214 11.0232 6.49442 11.0184 6.50716C11.0136 6.51989 10.985 6.57719 10.9563 6.63449C10.9261 6.69179 10.8895 6.76341 10.8751 6.79206C10.8608 6.82231 10.8258 6.88597 10.7955 6.93213C10.7653 6.97829 10.7414 7.01967 10.7414 7.02286C10.7414 7.034 10.482 7.41918 10.4072 7.51787C10.3674 7.57039 10.3308 7.61973 10.3244 7.62928C10.318 7.63724 10.2958 7.6643 10.2767 7.68817C10.256 7.71205 10.2273 7.74707 10.2114 7.76776C10.1111 7.89987 10.0252 8.00332 9.97743 8.05267C9.94719 8.08609 9.87875 8.1609 9.82622 8.21979C9.77369 8.28028 9.68456 8.37896 9.62726 8.44103C9.56996 8.50311 9.5047 8.57633 9.47924 8.60498C9.44899 8.64158 9.42194 8.65591 9.38851 8.65591C9.3328 8.65591 9.33121 8.64795 9.35509 8.36145C9.38374 8.02402 9.38214 4.78815 9.35349 4.72449C9.23889 4.46823 8.89032 4.46027 8.73911 4.71016L8.70409 4.76746L8.70568 6.37346C8.70568 7.25683 8.71205 8.11952 8.71842 8.28983C8.73115 8.60179 8.72319 8.67183 8.68181 8.67183C8.67067 8.67183 8.64998 8.65591 8.63565 8.63522C8.62292 8.61612 8.57835 8.56359 8.53538 8.51903C8.27593 8.24526 8.17725 8.13384 7.91303 7.81232C7.90189 7.79959 7.86528 7.75662 7.83186 7.71682C7.79843 7.67703 7.75864 7.62769 7.74432 7.60541C7.72999 7.58312 7.67747 7.5115 7.62972 7.44624C7.51512 7.28867 7.43076 7.16611 7.43076 7.15497C7.43076 7.15019 7.39415 7.09289 7.35117 7.02763C7.30661 6.96078 7.26045 6.88438 7.24772 6.85414C7.22225 6.80002 7.20315 6.76501 7.15858 6.69816C7.14426 6.67587 7.12675 6.63926 7.12038 6.61857C7.11402 6.59629 7.09969 6.56764 7.08855 6.55491C7.07741 6.54217 7.06308 6.50875 7.05672 6.4801C7.05194 6.45304 7.03602 6.42121 7.02488 6.41166C7.01215 6.40051 6.99782 6.36868 6.99146 6.33844C6.98668 6.30979 6.97236 6.27636 6.95962 6.26681C6.94689 6.25726 6.93257 6.22066 6.92779 6.18723C6.92142 6.15381 6.9071 6.1172 6.89596 6.10765C6.88322 6.0981 6.87367 6.07104 6.87367 6.04716C6.87367 6.02488 6.85935 5.97395 6.84184 5.93575C6.82433 5.89755 6.80523 5.83706 6.80046 5.80045C6.79409 5.76544 6.78136 5.71769 6.77021 5.6954C6.75907 5.67312 6.74475 5.61264 6.73838 5.56011C6.73361 5.50759 6.7161 5.42482 6.70177 5.37707C6.66357 5.24815 6.66357 4.50165 6.70177 4.37432C6.7161 4.32657 6.73361 4.2438 6.73997 4.19128C6.74475 4.13875 6.76066 4.07668 6.77181 4.0528C6.78454 4.02893 6.79409 3.99391 6.79409 3.97322C6.79568 3.95253 6.80682 3.90796 6.81956 3.87294C6.83229 3.83793 6.85298 3.77744 6.86571 3.73765C6.89436 3.63897 6.93257 3.53551 6.97077 3.45433C6.98668 3.41773 7.01533 3.35406 7.03443 3.31108C7.05194 3.2697 7.07422 3.22513 7.08218 3.2124C7.09014 3.19967 7.10447 3.17102 7.11242 3.14873C7.12197 3.12645 7.13471 3.0978 7.14267 3.08507C7.15062 3.07233 7.18087 3.01503 7.20952 2.95773C7.23976 2.90043 7.28592 2.82085 7.31457 2.77947C7.34322 2.73808 7.36709 2.69829 7.36709 2.69352C7.36709 2.68237 7.60584 2.32584 7.67428 2.23352C7.74113 2.1428 8.02604 1.78786 8.04992 1.76239C8.06424 1.74807 8.14701 1.65893 8.23455 1.56343C8.47967 1.29603 8.97149 0.810572 9.02084 0.78988C9.06222 0.772372 9.06699 0.773964 9.1227 0.82808ZM17.3851 6.04557L17.4264 6.06149L17.4248 6.33526C17.4248 6.48646 17.4185 6.65996 17.4105 6.72203C17.4026 6.78251 17.3882 6.95441 17.3787 7.10403C17.3691 7.25206 17.3532 7.39531 17.3437 7.42237C17.3357 7.44783 17.3182 7.54174 17.3071 7.62928C17.2959 7.71682 17.2784 7.8171 17.2689 7.85212C17.2434 7.95239 17.2036 8.11474 17.1861 8.20228C17.1765 8.24526 17.1606 8.29938 17.1479 8.32166C17.1368 8.34394 17.1224 8.3901 17.1177 8.42512C17.1113 8.46013 17.097 8.50311 17.0858 8.52062C17.0731 8.53813 17.0588 8.57792 17.0524 8.60816C17.046 8.6384 17.0301 8.67819 17.019 8.6957C17.0062 8.71321 16.9967 8.73549 16.9967 8.74823C16.9967 8.76892 16.9282 8.92968 16.8996 8.97424C16.8916 8.98698 16.8773 9.01563 16.8694 9.03791C16.8598 9.06019 16.8471 9.08884 16.8391 9.10158C16.8312 9.11431 16.7993 9.17002 16.7707 9.22573C16.742 9.28144 16.7086 9.33396 16.699 9.34351C16.6879 9.35306 16.6784 9.36898 16.6784 9.38012C16.6784 9.38967 16.664 9.41195 16.6465 9.42787C16.629 9.44379 16.6115 9.47084 16.6051 9.48994C16.5988 9.50745 16.5844 9.53451 16.5733 9.54724C16.5622 9.55998 16.5049 9.6316 16.446 9.70323C16.3887 9.77644 16.3059 9.87354 16.2645 9.91651L16.1881 9.99769L15.8714 9.97859C14.9848 9.92765 14.7508 9.92288 14.4628 9.95153C13.9821 10.0009 13.99 10.0009 13.9789 9.96904C13.9693 9.94834 13.9916 9.9181 14.0617 9.85284C14.5917 9.36261 14.9403 9.01085 14.9753 8.93127C15.0087 8.85646 15.0182 8.72913 14.9928 8.71162C14.9848 8.70684 14.9737 8.68297 14.9673 8.6575C14.9482 8.56837 14.7699 8.44899 14.6553 8.44899C14.5264 8.44899 14.5567 8.42193 13.6478 9.33714C13.2547 9.73347 12.9188 10.0598 12.8997 10.0645C12.8806 10.0677 12.8313 10.0789 12.7867 10.0868C12.7437 10.0964 12.6578 10.1107 12.5957 10.1187C12.5352 10.1282 12.4684 10.1393 12.4493 10.1457C12.3936 10.1616 12.3808 10.1059 12.4047 9.93402C12.4159 9.85444 12.4286 9.78281 12.4334 9.77485C12.4397 9.7653 12.4509 9.69209 12.4604 9.60932C12.47 9.52655 12.4875 9.42787 12.5002 9.38808C12.513 9.34829 12.5273 9.27666 12.5336 9.22891C12.54 9.18116 12.5527 9.11908 12.5639 9.09203C12.575 9.06497 12.5894 9.01085 12.5957 8.97265C12.6021 8.93445 12.6164 8.88511 12.6276 8.86283C12.6387 8.84054 12.653 8.7912 12.6594 8.75141C12.6658 8.71162 12.6817 8.66546 12.6928 8.64795C12.7055 8.63044 12.7151 8.60657 12.7151 8.59224C12.7151 8.57792 12.7294 8.54131 12.7453 8.50788C12.7613 8.47605 12.7804 8.42989 12.7851 8.40602C12.7963 8.35986 12.817 8.3137 12.9045 8.13066C13.008 7.91578 13.0828 7.79163 13.2913 7.49717C13.3868 7.36029 13.7385 7.02126 13.8929 6.91621C13.9152 6.90189 13.9725 6.86051 14.0203 6.82549C14.068 6.79047 14.1301 6.75068 14.1556 6.73795C14.1826 6.72362 14.2606 6.68224 14.3306 6.64245C14.4007 6.60266 14.4755 6.56446 14.4978 6.55491C14.5201 6.54695 14.5583 6.52944 14.5821 6.51511C14.6076 6.50238 14.6347 6.49124 14.6442 6.49124C14.6538 6.49124 14.6904 6.47851 14.727 6.461C14.8623 6.39892 15.0867 6.32252 15.2268 6.29069C15.2825 6.27955 15.3398 6.26204 15.3573 6.25249C15.3732 6.24453 15.4273 6.2318 15.4782 6.22702C15.5308 6.22066 15.5897 6.20792 15.6119 6.19678C15.6342 6.18564 15.7027 6.17131 15.7631 6.16654C15.8252 6.16017 15.9144 6.14426 15.9621 6.13311C16.0099 6.12038 16.1595 6.10446 16.2932 6.09491C16.4269 6.08536 16.5447 6.07422 16.5558 6.06626C16.5653 6.0599 16.7357 6.05035 16.933 6.04557C17.1304 6.03921 17.3039 6.03443 17.3182 6.03284C17.3325 6.03125 17.3628 6.03602 17.3851 6.04557ZM1.62912 7.85212C1.69916 7.86326 1.83126 7.87758 1.92358 7.88395C2.0159 7.88872 2.12254 7.90305 2.16233 7.91578C2.20212 7.92692 2.2833 7.94125 2.34378 7.94762C2.40427 7.95239 2.47589 7.96672 2.50295 7.97786C2.53001 7.989 2.59527 8.00332 2.64779 8.01128C2.70032 8.01765 2.75762 8.03038 2.77512 8.03993C2.79263 8.04948 2.84675 8.0654 2.8945 8.07654C3.00273 8.10201 3.12847 8.1418 3.181 8.17045C3.20328 8.18159 3.24626 8.19592 3.2765 8.20228C3.30674 8.20865 3.34017 8.21979 3.34972 8.22775C3.35927 8.23571 3.39588 8.25163 3.43248 8.26436C3.77151 8.38373 4.28084 8.72117 4.56098 9.00926C4.74402 9.19708 4.97322 9.49472 5.02893 9.61728C5.03848 9.63638 5.06235 9.67935 5.08304 9.71437C5.10533 9.74939 5.1292 9.79554 5.13875 9.81783C5.1483 9.84011 5.18491 9.91492 5.21993 9.98495C5.25335 10.0534 5.282 10.1234 5.282 10.1378C5.282 10.1521 5.29155 10.1728 5.30429 10.1823C5.31702 10.1935 5.33135 10.2269 5.33771 10.2587C5.34249 10.2906 5.3584 10.3303 5.36955 10.3494C5.38069 10.3685 5.3966 10.4115 5.40297 10.4465C5.40775 10.4816 5.42048 10.5245 5.43003 10.542C5.45072 10.5818 5.50006 10.7649 5.52712 10.9002C5.53985 10.9575 5.55577 11.0211 5.56532 11.0434C5.57328 11.0657 5.58601 11.1294 5.59238 11.1867C5.59715 11.244 5.61307 11.3299 5.62421 11.3777C5.63535 11.4254 5.65286 11.5543 5.664 11.6642C5.67355 11.774 5.68788 11.8886 5.69584 11.9188C5.71494 11.9936 5.742 12.3247 5.73245 12.3629C5.71812 12.4202 5.6847 12.4091 5.6067 12.3199C5.42525 12.113 5.2454 11.9268 4.33655 11.0148C3.3529 10.0279 3.3147 9.99291 3.19532 9.99291C3.10937 9.99291 2.91042 10.0964 2.91042 10.1409C2.91042 10.1489 2.89609 10.1728 2.87858 10.1951C2.82128 10.2683 2.83242 10.4322 2.90087 10.5198C2.98841 10.6328 4.89682 12.5221 5.14353 12.7401C5.22789 12.8149 5.23425 12.8245 5.21993 12.8643C5.20242 12.9088 5.18491 12.9152 5.14194 12.8913C5.12602 12.8834 4.99869 12.8675 4.86021 12.8579C4.72014 12.8484 4.56257 12.8293 4.51004 12.8181C4.45752 12.807 4.35565 12.7927 4.28403 12.7863C4.21081 12.7815 4.12804 12.7688 4.10098 12.7592C4.07233 12.7513 3.99434 12.7338 3.92908 12.7226C3.79538 12.6987 3.62667 12.659 3.55504 12.6335C3.52958 12.6239 3.47546 12.6096 3.43567 12.6017C3.39588 12.5921 3.34494 12.5762 3.32107 12.5635C3.29878 12.5507 3.26536 12.5396 3.24944 12.5396C3.23352 12.5396 3.19373 12.5253 3.16031 12.5093C3.12847 12.4934 3.08232 12.4743 3.05844 12.4695C3.03297 12.4632 2.98363 12.4441 2.94702 12.4266C2.90882 12.4107 2.84516 12.382 2.80377 12.3629C2.7608 12.3454 2.71623 12.3247 2.7035 12.3167C2.69077 12.3088 2.63665 12.2801 2.58412 12.2515C2.5316 12.2244 2.47748 12.1926 2.46316 12.1799C2.45042 12.1671 2.43292 12.1576 2.42496 12.1576C2.40108 12.1576 2.23555 12.0398 2.05887 11.8981C1.97133 11.8281 1.70393 11.5607 1.63708 11.4748C1.60684 11.4381 1.57023 11.3952 1.5575 11.3793C1.4811 11.2997 1.32989 11.0434 1.20733 10.7887C1.16276 10.6964 1.11979 10.6089 1.11024 10.5914C1.10069 10.5755 1.08318 10.5325 1.07204 10.4959C1.0593 10.4609 1.03065 10.3797 1.00837 10.3192C0.965396 10.2046 0.939929 10.1218 0.896954 9.94516C0.882629 9.88786 0.860346 9.81942 0.849204 9.79077C0.836471 9.76212 0.822146 9.69049 0.815779 9.6316C0.811004 9.57271 0.796679 9.49154 0.785537 9.45174C0.772804 9.41195 0.758479 9.326 0.753704 9.26074C0.747337 9.19549 0.733012 9.08725 0.720279 9.02199C0.688446 8.85805 0.659796 7.86326 0.685262 7.83142C0.709137 7.80437 1.43494 7.81869 1.62912 7.85212ZM15.9064 10.6519C16.0114 10.6646 16.1833 10.6805 16.2884 10.6853C16.3934 10.6917 16.5192 10.706 16.5669 10.7171C16.6147 10.7283 16.7229 10.7426 16.8057 10.749C16.8885 10.7537 16.9935 10.7681 17.0365 10.7808C17.081 10.7935 17.1702 10.8078 17.2354 10.8142C17.3007 10.819 17.3835 10.8333 17.4185 10.8445C17.4535 10.8556 17.5267 10.8699 17.5824 10.8747C17.6365 10.8811 17.7082 10.8954 17.7416 10.9065C17.7734 10.9177 17.8466 10.932 17.9039 10.9384C17.9596 10.9447 18.0185 10.9575 18.036 10.9654C18.052 10.975 18.1236 10.9925 18.1952 11.0052C18.4053 11.0434 18.4196 11.0466 18.4419 11.0625C18.4563 11.0752 18.461 11.1596 18.4626 11.384C18.4626 11.5512 18.469 11.766 18.4769 11.8631C18.4865 11.9586 18.5024 12.4393 18.5151 12.9295C18.5279 13.4198 18.547 13.9609 18.5549 14.1313C18.6091 15.1245 18.6059 16.3087 18.5502 16.4869C18.5374 16.5267 18.5231 16.5936 18.5167 16.6381C18.5104 16.6811 18.496 16.7352 18.4849 16.7575C18.4738 16.7798 18.4594 16.8259 18.4547 16.861C18.4483 16.896 18.434 16.939 18.4228 16.9565C18.4117 16.974 18.3974 17.009 18.391 17.036C18.3846 17.0615 18.3671 17.1124 18.3496 17.1475C18.3337 17.1825 18.3162 17.2223 18.3114 17.235C18.3066 17.2477 18.2955 17.27 18.2859 17.2828C18.278 17.2955 18.2621 17.3241 18.2541 17.3464C18.2446 17.3687 18.2207 17.4149 18.1984 17.4499C18.1777 17.4849 18.1507 17.5311 18.1395 17.5533C17.9533 17.9131 17.3914 18.459 17.0126 18.6484C16.9903 18.6595 16.9442 18.685 16.9091 18.7057C16.8741 18.728 16.8248 18.7566 16.7977 18.771C16.7723 18.7837 16.7213 18.8139 16.6863 18.8346C16.6513 18.8569 16.602 18.8856 16.5749 18.8999C16.5494 18.9126 16.5001 18.9397 16.4683 18.9588C16.4364 18.9779 16.3377 19.0368 16.2486 19.0893C16.1595 19.1418 16.0608 19.2007 16.029 19.2198C15.9971 19.2389 15.9494 19.266 15.9223 19.2803C15.8968 19.2946 15.8459 19.3233 15.8109 19.344C15.7759 19.3647 15.7265 19.3933 15.6995 19.4076C15.674 19.4204 15.6263 19.449 15.5928 19.4681C15.561 19.4872 15.4878 19.5318 15.4289 19.5668C15.37 19.6018 15.2952 19.6464 15.2634 19.6655C15.2315 19.6846 15.1886 19.7101 15.1663 19.7212C15.144 19.7323 15.0867 19.7689 15.0389 19.8008C14.9912 19.8342 14.9434 19.8613 14.9339 19.8613C14.9243 19.8613 14.9036 19.8756 14.8877 19.8931C14.8463 19.9393 14.8257 19.9345 14.6824 19.839C14.6124 19.7928 14.5073 19.7276 14.45 19.6957C14.3259 19.6257 14.3004 19.6098 14.2272 19.5652C14.1969 19.5461 14.1349 19.5095 14.0903 19.484C14.0441 19.4602 13.9598 19.4108 13.9009 19.3758C13.8404 19.3408 13.7481 19.2883 13.6956 19.2596C13.6415 19.2294 13.5873 19.1959 13.573 19.1832C13.5603 19.1705 13.5428 19.1609 13.538 19.1609C13.5269 19.1609 13.4743 19.1307 13.2945 19.0256C12.8886 18.7869 12.7931 18.7312 12.7055 18.6834C12.6498 18.6532 12.5957 18.6182 12.5846 18.607C12.575 18.5975 12.5575 18.5879 12.548 18.5879C12.5384 18.5879 12.5082 18.572 12.4811 18.5513C12.4541 18.5322 12.4159 18.5052 12.3968 18.4924C12.0386 18.2489 11.5723 17.7284 11.4497 17.4356C11.437 17.4053 11.4195 17.3767 11.4115 17.3719C11.4036 17.3655 11.3924 17.3416 11.3861 17.3162C11.3813 17.2907 11.3654 17.2605 11.3526 17.2493C11.3399 17.2398 11.3303 17.2191 11.3303 17.2048C11.3303 17.1904 11.3112 17.1427 11.2906 17.0997C11.2683 17.0551 11.2508 17.009 11.2508 16.9963C11.2508 16.9819 11.2412 16.9581 11.2285 16.9405C11.2173 16.923 11.203 16.8769 11.1966 16.8387C11.1903 16.8005 11.176 16.7511 11.1648 16.7273C11.1521 16.705 11.1378 16.6461 11.1314 16.5983C11.1266 16.5506 11.1091 16.4742 11.0948 16.4312C11.0582 16.3246 11.0614 14.8714 11.098 14.2268C11.1107 13.9944 11.1266 13.5328 11.1314 13.2001C11.1362 12.8675 11.1489 12.4871 11.1584 12.3565C11.1664 12.2244 11.1791 11.8822 11.1855 11.5941L11.1951 11.0705L11.2778 11.0418C11.324 11.0275 11.402 11.0084 11.4529 11.002C11.5038 10.9957 11.5707 10.9813 11.6025 10.9702C11.6344 10.9591 11.7028 10.9447 11.7537 10.9384C11.8063 10.932 11.8747 10.9177 11.9065 10.9065C11.94 10.8954 12.0116 10.8811 12.0657 10.8747C12.1214 10.8699 12.1946 10.8556 12.2296 10.8445C12.2647 10.8333 12.3474 10.819 12.4127 10.8126C12.4779 10.8063 12.5718 10.7919 12.6196 10.7808C12.6673 10.7681 12.7756 10.7537 12.8584 10.749C12.9411 10.7426 13.0462 10.7283 13.0891 10.7171C13.1337 10.7044 13.2579 10.6917 13.3677 10.6853C13.4775 10.6789 13.6208 10.6678 13.686 10.6582C14.0266 10.6105 15.5387 10.6073 15.9064 10.6519Z" fill="black"/>
<path d="M16.586 13.4946C16.5303 13.5184 14.7301 15.3298 14.6378 15.4571C14.606 15.5001 14.5407 15.4778 14.4866 15.4078C14.4627 15.3743 14.2781 15.1802 14.0744 14.9748C13.8722 14.7695 13.6796 14.5705 13.6478 14.5339C13.5029 14.3716 13.3422 14.3382 13.1926 14.4368C13.0461 14.5339 13.0032 14.6294 13.0286 14.8109C13.0382 14.8857 13.0477 14.8952 13.6748 15.5271C14.025 15.8789 14.3163 16.1734 14.3211 16.1829C14.3768 16.2736 14.5916 16.3262 14.7126 16.28C14.754 16.2641 16.9537 14.0771 17.0253 13.9816C17.081 13.9052 17.0762 13.7333 17.0142 13.6394C16.9218 13.5009 16.7324 13.4357 16.586 13.4946Z" fill="black"/>
</svg>
