<svg width="24" height="24" viewBox="0 0 24 24" fill="none" xmlns="http://www.w3.org/2000/svg">
<path d="M14.5 7.49999C4.99999 13.5 1.99999 22.5 1.99999 22.5M17.259 5.17799C18.0975 3.72699 19.917 3.01749 21.5165 3.51799L22.3695 3.78549C22.441 3.8079 22.5065 3.84608 22.5612 3.89722C22.616 3.94836 22.6585 4.01114 22.6857 4.08094C22.713 4.15073 22.7242 4.22574 22.7185 4.30044C22.7128 4.37514 22.6904 4.4476 22.653 4.51249L22.206 5.28649C21.368 6.73749 19.548 7.44699 17.949 6.94649L16.5 6.49199L17.259 5.17799ZM15.244 9.82049C16.7315 8.56049 18.996 8.91299 20.0715 10.5455C20.1035 10.5938 20.1327 10.6385 20.159 10.6795C20.263 10.8395 20.253 11.0265 20.108 11.1495C18.6205 12.4095 16.356 12.057 15.2805 10.4245L15.193 10.2905C15.0895 10.1305 15.099 9.94349 15.244 9.82049ZM14.976 1.50449C12.861 1.40149 11.3925 3.16149 11.826 5.23399L11.8625 5.40399C11.906 5.60599 12.0575 5.75749 12.264 5.76749C14.379 5.86999 15.8475 4.11049 15.414 2.03749L15.3775 1.86749C15.334 1.66599 15.1825 1.51449 14.976 1.50449ZM10.745 13.2385C12.381 11.8015 14.7975 12.101 15.8965 13.8485L15.9865 13.9925C16.0915 14.1635 16.0755 14.369 15.916 14.509C14.2795 15.9455 11.863 15.646 10.764 13.899L10.674 13.755C10.569 13.584 10.585 13.3785 10.745 13.2385ZM8.87499 4.37999C10.401 6.05449 9.94999 8.46399 7.94599 9.51899L7.78099 9.60449C7.58499 9.70599 7.35599 9.68449 7.20749 9.52099C5.68149 7.84699 6.13249 5.43749 8.13649 4.38249L8.30149 4.29649C8.49799 4.19549 8.72649 4.21649 8.87499 4.37999ZM3.54099 8.40149C5.55749 9.52499 5.90249 11.999 4.30749 13.6675L4.17599 13.8035C4.01899 13.965 3.79099 14.0185 3.59449 13.9085C1.57799 12.7855 1.23299 10.311 2.82849 8.64249C2.87549 8.59315 2.91932 8.54782 2.95999 8.50649C3.11649 8.34499 3.34449 8.29149 3.54099 8.40149ZM7.20749 17.427C8.76649 15.725 11.2535 15.9615 12.5075 17.899C12.5448 17.956 12.579 18.009 12.61 18.058C12.731 18.248 12.73 18.482 12.578 18.648C11.019 20.35 8.53199 20.114 7.27749 18.1765L7.17499 18.0165C7.05449 17.827 7.05499 17.593 7.20749 17.427Z" stroke="black" stroke-linecap="round" stroke-linejoin="round"/>
</svg>
