<svg width="21" height="21" viewBox="0 0 21 21" fill="none" xmlns="http://www.w3.org/2000/svg">
<path d="M8.5 15.6475C8.5 17.9485 6.71 19.8145 4.5 19.8145C2.29 19.8145 0.5 17.9485 0.5 15.6475C0.5 14.2075 2.066 12.2865 3.238 11.0495C3.39934 10.8761 3.59466 10.7379 3.81179 10.6433C4.02891 10.5488 4.26319 10.5 4.5 10.5C4.73681 10.5 4.97109 10.5488 5.18821 10.6433C5.40534 10.7379 5.60066 10.8761 5.762 11.0495C6.934 12.2865 8.5 14.2075 8.5 15.6475ZM20.5 15.6475C20.5 17.9485 18.71 19.8145 16.5 19.8145C14.29 19.8145 12.5 17.9485 12.5 15.6475C12.5 14.2075 14.066 12.2865 15.238 11.0495C15.3993 10.8761 15.5947 10.7379 15.8118 10.6433C16.0289 10.5488 16.2632 10.5 16.5 10.5C16.7368 10.5 16.9711 10.5488 17.1882 10.6433C17.4053 10.7379 17.6007 10.8761 17.762 11.0495C18.934 12.2865 20.5 14.2075 20.5 15.6475ZM14.5 5.64747C14.5 7.94847 12.71 9.81447 10.5 9.81447C8.29 9.81447 6.5 7.94847 6.5 5.64747C6.5 4.20747 8.066 2.28647 9.238 1.04947C9.39934 0.876113 9.59466 0.737859 9.81179 0.643324C10.0289 0.548789 10.2632 0.5 10.5 0.5C10.7368 0.5 10.9711 0.548789 11.1882 0.643324C11.4053 0.737859 11.6007 0.876113 11.762 1.04947C12.934 2.28647 14.5 4.20747 14.5 5.64747Z" stroke="black"/>
</svg>
